P3
# Amiga 1.3 palette
1 4
255
   0   80  160   # 0: blue - #0050A0
 240  240  240   # 1: white - #f0f0f0
   0    0   32   # 2: black - #000020
 240  128   32   # 3: orange - #f08020