P3
# Amiga 2.04 palette
1 4
255
 160  160  160   # 0: grey - #a0a0a0
   0    0    0   # 1: black - #000000
 240  240  240   # 2: white - #f0f0f0
  96  128  176   # 3: blue - #6080b0