P3
# PC - CGA (m4, p1, high) (c/m/w) palette
1 4
255
   0    0    0   # 0: black - #000
  95   15    0   # 11: light cyan - #5ff
 245   15    0   # 13: light magenta - #f5f
 255   15    0   # 15: white - #fff