P3
# PC - CGA (m4, p1, low) (c/m/w) palette
1 4
255
   0    0    0   # 0: black - #000
  10   10    0   # 3: cyan - #0aa
 160   10    0   # 5: magenta - #a0a
 170   10    0   # 7: light gray - #aaa