P3
# PC - CGA (m5, low) (c/r/w) palette
1 4
255
   0    0    0   # 0: black - #000
  10   10    0   # 3: cyan - #0aa
 160    0    0   # 4: red - #a00
 170   10    0   # 7: light gray - #aaa