P3
# Windows (16 color) palette
1 16
255
 255  255  255   # 0: black - #ffffff
 128    0    0   # 1: maroon - #800000
   0  128    0   # 2: green - #008000
 128  128    0   # 3: olive - #808000
   0    0  128   # 4: navy - #000080
 128    0  128   # 5: purple - #800080
   0  128  128   # 6: teal - #008080
 192  192  192   # 7: silver - #c0c0c0
 128  128  128   # 8: gray - #808080
 255    0    0   # 9: red - #ff0000
   0  255    0   # 10: lime - #00ff00
 255  255    0   # 11: yellow - #ffff00
   0    0  255   # 12: blue - #0000ff
 255    0  255   # 13: fuscia - #ff00ff
   0  255  255   # 14: aqua - #00ffff
 255  255  255   # 15: white - #ffffff